<svg width="180" height="180" viewBox="0 0 180 180" fill="none" xmlns="http://www.w3.org/2000/svg">
  <defs>
    <linearGradient id="gpa-bg" x1="18" y1="12" x2="164" y2="170" gradientUnits="userSpaceOnUse">
      <stop stop-color="#202D97"/>
      <stop offset="1" stop-color="#5145CD"/>
    </linearGradient>
    <linearGradient id="gpa-bars" x1="46" y1="126" x2="134" y2="126" gradientUnits="userSpaceOnUse">
      <stop stop-color="#A7F3D0"/>
      <stop offset="1" stop-color="#34D399"/>
    </linearGradient>
  </defs>

  <rect width="180" height="180" rx="42" fill="url(#gpa-bg)"/>
  <path d="M21 58L90 27L159 58L90 89L21 58Z" fill="white" fill-opacity="0.98"/>
  <path d="M48 70V96C58 106 75 112 90 112C105 112 122 106 132 96V70L90 89L48 70Z" fill="white" fill-opacity="0.9"/>
  <path d="M159 58V91" stroke="white" stroke-width="8" stroke-linecap="round"/>
  <circle cx="159" cy="100" r="7" fill="#A7F3D0"/>

  <rect x="42" y="128" width="18" height="20" rx="5" fill="white" fill-opacity="0.4"/>
  <rect x="68" y="118" width="18" height="30" rx="5" fill="white" fill-opacity="0.65"/>
  <rect x="94" y="107" width="18" height="41" rx="5" fill="url(#gpa-bars)"/>
  <rect x="120" y="96" width="18" height="52" rx="5" fill="#FDE68A"/>
</svg>
